<svg width="903" height="580" viewBox="0 0 903 580" fill="none" xmlns="http://www.w3.org/2000/svg">
<path d="M893.037 275.358C848.73 124.628 778.978 98.4959 631.528 109.695C568.88 102.149 543.757 32.2629 449.523 14.1994C258.489 -49.9462 4.2441 112.023 1.39463 323.407C-14.0968 601.344 485.884 589.021 673.949 570.917C837.332 555.503 935.659 415.41 893.037 275.358ZM210.249 44.2652C154.704 83.6437 3.92303 225.743 6.73237 348.575C-5.1471 212.577 90.6913 93.2775 211.091 43.663C210.81 43.8637 210.529 44.0645 210.249 44.2652ZM568.639 97.8536C545.844 69.6745 519.717 48.1187 491.383 32.5038C510.847 41.2144 529.268 52.3737 546.205 65.2189C661.989 186.806 796.677 18.6551 880.957 258.579C768.784 39.368 696.063 185 568.639 97.8536Z" fill="#E6E7E8"/>
<path d="M316.401 33.5876H224.014L192.991 158.868H285.378L316.401 33.5876Z" fill="white"/>
<path d="M335.023 33.5876L304.04 158.868H396.387L427.41 33.5876H335.023Z" fill="white"/>
<path d="M188.657 176.45L157.634 301.731H250.021L281.044 176.45H188.657Z" fill="white"/>
<path d="M268.683 301.731H361.03L392.053 176.45H299.666L268.683 301.731Z" fill="white"/>
<path d="M892.435 366.559H558.887V578.143C564.706 577.942 570.445 577.742 576.104 577.541V574.37H632.692C647.662 573.286 661.508 572.122 673.949 570.918C691.247 569.272 707.862 566.261 723.594 561.966H576.064V475.662H856.355C859.486 471.608 862.496 467.474 865.345 463.259H576.064V376.995H875.218V447.243C882.241 434.718 888.02 421.552 892.435 407.904V366.559Z" fill="#A7A9AC"/>
<path d="M576.104 376.995V463.259H865.385C868.917 458.041 872.208 452.702 875.258 447.243V376.995H576.104ZM689.922 424.723V415.571H761.4V424.723H689.922Z" fill="#BCBEC0"/>
<path d="M576.104 561.926H723.594C779.54 546.712 825.131 515.764 856.355 475.663H576.064V561.926H576.104ZM689.922 514.238H761.4V523.39H689.922V514.238Z" fill="#BCBEC0"/>
<path d="M576.104 577.501C596.251 576.698 615.234 575.574 632.692 574.33H576.104V577.501Z" fill="#BCBEC0"/>
<path d="M761.4 415.571H689.922V424.723H761.4V415.571Z" fill="white"/>
<path d="M761.4 514.238H689.922V523.39H761.4V514.238Z" fill="white"/>
<path d="M615.074 108.371C619.247 109.615 623.421 110.659 627.595 111.542V109.133C623.261 108.411 619.127 107.407 615.074 106.123V108.371Z" fill="#A7A9AC"/>
<path d="M744.022 119.169V111.903C741.975 111.542 739.848 111.181 737.761 110.859V118.446C739.848 118.687 741.935 118.928 744.022 119.169Z" fill="#A7A9AC"/>
<path d="M866.589 232.206C862.375 224.901 858.201 218.077 854.068 211.734V317.988H743.982V129.726C741.895 129.485 739.808 129.284 737.721 129.124V317.988H627.555V124.668C623.461 123.705 619.288 122.541 615.033 121.136V328.987H866.549V232.206H866.589Z" fill="#A7A9AC"/>
<path d="M866.589 222.693V206.074C862.616 198.207 858.442 190.861 854.068 184.117V198.006C858.362 205.512 862.536 213.741 866.589 222.693Z" fill="#A7A9AC"/>
<path d="M854.108 198.006V184.117C826.857 141.808 791.781 120.413 744.022 111.943V119.209C783.995 124.226 821.64 140.845 854.108 198.006Z" fill="#BCBEC0"/>
<path d="M854.108 317.988V211.734C814.657 151.041 779.58 133.9 744.022 129.726V317.988H854.108ZM761.239 149.315V216.912H751.687V149.315H761.239Z" fill="#BCBEC0"/>
<path d="M737.761 118.486V110.9C707.621 106.323 672.585 106.564 631.528 109.655C630.204 109.495 628.879 109.294 627.555 109.093V111.502C664.678 119.409 702.083 114.994 737.761 118.486Z" fill="#BCBEC0"/>
<path d="M737.761 317.988V129.124C703.206 126.434 667.929 134.262 627.595 124.668V318.028H737.761V317.988ZM720.424 149.315H729.975V216.912H720.424V149.315Z" fill="#BCBEC0"/>
<path d="M761.239 149.315H751.687V216.912H761.239V149.315Z" fill="white"/>
<path d="M729.975 149.315H720.424V216.912H729.975V149.315Z" fill="white"/>
<path d="M180.108 268.654C177.5 268.092 176.256 271.665 175.654 274.274C171.48 292.137 150.289 298.8 142.022 314.094C132.35 332.158 141.982 353.553 138.731 372.74C135.32 392.691 119.066 408.346 116.537 428.697C106.183 387.914 139.172 376.594 110.919 333.161C96.31 302.614 111.641 250.511 76.6848 232.929C73.715 233.852 74.5578 238.187 75.4808 241.158C81.6212 261.549 64.2435 280.496 64.7652 300.687C65.5278 324.451 87.6011 340.347 95.4271 361.501C103.414 383.097 96.591 407.663 105.019 429.34C94.6244 417.418 95.3067 398.712 84.1898 387.793C79.0527 382.816 72.0294 380.287 65.9692 376.474C54.4108 369.248 46.5447 357.567 37.6752 347.171C28.8058 336.814 17.5283 327.02 3.9231 325.976C-1.6153 325.534 -0.732369 330.432 3.12043 332.88C15.923 343.317 12.9932 363.066 22.1035 375.791C32.9395 390.724 54.0095 391.326 68.2568 401.522C84.551 413.163 90.892 436.083 110.076 444.352C112.082 445.155 117.942 447.403 119.628 444.874C123.561 446.801 124.323 439.455 124.564 437.087C125.808 412.882 152.136 402.204 160.082 381.933C162.57 374.346 161.647 366.117 162.53 358.209C164.737 329.147 198.65 296.914 180.108 268.654Z" fill="#23ADAD"/>
<path d="M11.0668 266.487C13.9162 265.162 16.244 268.935 17.5684 271.785C26.799 291.093 52.5646 293.422 65.8488 308.796C81.3804 326.98 75.7216 353.754 84.2298 374.828C93.0592 396.705 115.534 410.513 123.52 433.113C125.166 384.02 84.7114 379.364 106.102 322.805C115.173 284.35 84.6713 228.794 120.149 200.013C123.761 200.334 123.922 205.472 123.601 209.085C121.674 233.852 146.236 251.153 150.65 274.274C155.667 301.57 134.517 325.173 130.825 351.265C127.092 377.879 141.018 404.171 136.804 430.985C145.714 414.808 140.256 393.654 150.209 378.441C154.824 371.456 162.209 366.88 168.189 361.019C179.546 349.9 185.647 334.606 193.152 320.557C200.697 306.548 211.091 292.538 226.342 288.002C232.442 286.036 232.603 291.776 228.83 295.549C216.83 310.642 225.098 332.399 217.874 349.178C209.245 368.887 185.406 374.868 171.68 390.041C156.028 407.342 154.503 435.12 134.718 449.29C132.631 450.735 126.49 454.749 123.962 452.26C119.948 455.431 117.3 447.283 116.417 444.633C108.952 417.337 76.2834 411.718 62.1565 390.603C57.4208 382.575 56.4174 372.981 53.4877 364.15C43.655 331.596 -3.06015 303.256 11.0668 266.487Z" fill="#3EC9C9"/>
<path d="M18.371 280.897C27.8826 309.478 60.3906 305.584 64.6046 345.485C72.3905 406.419 103.092 400.558 126.811 442.666C139.373 412.44 116.979 382.695 116.577 352.349C116.176 328.144 127.494 305.022 124.403 280.697C121.634 258.137 109.634 236.541 113.768 213.42C114.089 211.574 117.019 212.015 116.658 213.902C112.845 235.538 123.48 255.89 126.811 276.883C131.226 300.968 120.631 324.17 119.547 348.014C118.223 380.488 143.266 412.119 129.34 444.232C149.928 430.383 147.4 402.164 159.319 382.655C168.028 368.205 184.122 361.059 195.078 348.696C208.282 333.964 206.436 312.007 218.275 296.512C219.439 295.027 221.686 296.874 220.523 298.359C209.526 312.89 210.69 333.001 199.734 347.572C189.821 360.939 173.486 367.803 163.694 381.291C149.366 401.562 153.339 433.073 130.142 447.242C129.099 447.885 128.015 447.082 127.815 446.199C127.574 446.239 127.333 446.239 127.092 446.159C126.37 446.64 125.286 446.6 124.885 445.557C115.815 422.395 90.8919 411.236 77.1663 391.406C64.2434 373.624 64.3638 350.944 57.7017 330.793C50.1165 308.996 20.7389 304.38 15.4011 281.299C15.0399 279.372 17.9697 279.091 18.371 280.897Z" fill="#4FECED"/>
<path d="M616.318 535.995H707.581C746.992 535.995 761.52 511.147 761.52 480.479V375.43C761.52 344.762 729.574 319.915 690.163 319.915H616.318C576.907 319.915 544.961 344.762 544.961 375.43V480.479C544.961 511.147 576.907 535.995 616.318 535.995Z" fill="#939598"/>
<path d="M610.217 535.995H679.809C711.434 535.995 737.079 510.344 737.079 478.713V388.275C737.079 356.644 711.434 330.994 679.809 330.994H610.217C578.592 330.994 552.947 356.644 552.947 388.275V478.713C552.947 510.344 578.592 535.995 610.217 535.995Z" fill="#6D6E71"/>
<path d="M268.602 535.995H177.339C137.928 535.995 123.4 511.147 123.4 480.479V375.43C123.4 344.762 155.346 319.915 194.757 319.915H268.602C308.013 319.915 339.96 344.762 339.96 375.43V480.479C339.96 511.147 308.013 535.995 268.602 535.995Z" fill="#939598"/>
<path d="M274.703 535.995H205.152C173.527 535.995 147.881 510.344 147.881 478.713V388.275C147.881 356.644 173.527 330.994 205.152 330.994H274.743C306.368 330.994 332.013 356.644 332.013 388.275V478.713C331.973 510.344 306.328 535.995 274.703 535.995Z" fill="#6D6E71"/>
<path d="M571.891 142.932C561.416 174.282 558.847 189.496 562.419 216.27C563.623 224.981 568.118 232.969 568.439 241.76C569.523 256.492 544.72 260.225 562.259 275.96C583.248 295.228 565.75 305.705 591.155 303.096C616.519 300.486 611.302 279.452 641.04 273.351C670.779 267.209 682.177 220.846 682.177 214.705C682.177 208.563 623.542 88.6613 571.891 142.932ZM567.356 249.989C569.282 245.332 570.727 240.596 568.519 235.257C565.509 225.503 562.54 215.628 561.897 205.392C563.423 216.069 566.954 224.66 571.008 233.049C574.539 240.395 571.57 245.533 567.356 249.989Z" fill="#074D5A"/>
<path d="M613.428 255.287L583.448 274.475C583.448 274.475 565.709 328.304 616.277 325.695C666.805 323.086 684.464 272.187 691.768 263.998C666.805 248.223 667.367 238.227 664.116 198.327L612.344 210.008L613.428 255.287Z" fill="#E69572"/>
<path d="M679.969 245.573C656.17 275.037 671.421 307.27 626.15 305.986C601.187 305.263 610.498 264.359 612.786 255.528C612.987 254.806 612.304 254.123 611.582 254.324C599.903 257.696 581.201 264.68 566.271 272.909C563.302 278.007 555.275 319.754 556.599 355.199C561.134 385.345 571.408 385.305 572.572 397.508C574.579 418.662 574.98 428.135 564.385 451.377C561.977 463.299 555.516 478.472 555.516 478.472C583.168 513.676 681.093 510.064 721.908 488.066C733.547 483.089 721.186 465.828 718.577 458.362L720.985 453.143C721.387 450.253 717.735 443.269 716.771 440.499C712.276 427.573 717.935 427.333 718.738 404.372C719.179 390.965 729.253 390.603 733.186 353.834C718.296 298.76 758.751 262.994 703.889 255.849C689.762 249.547 679.969 245.573 679.969 245.573Z" fill="#D4D5D6"/>
<path d="M716.972 360.899C717.534 361.581 718.096 362.264 718.698 362.866C718.698 362.866 718.056 362.143 716.972 360.899Z" fill="#4FECED"/>
<path d="M716.973 360.899C703.368 343.598 706.498 300.165 706.498 300.165C695.662 321.962 668.572 328.103 681.455 317.867C694.338 307.631 698.391 285.835 698.391 285.835L666.566 304.902L673.348 291.936C673.348 291.936 652.398 325.013 624.506 315.218C621.416 314.134 616.158 313.452 618.044 316.101L634.138 330.472C594.005 317.627 601.59 299.443 601.59 299.443L591.436 279.011C591.436 279.011 600.907 306.949 595.489 330.793C593.202 340.949 575.503 390.202 616.961 386.027C662.512 368.245 689.963 401.201 715.327 373.744C715.327 373.744 695.02 349.218 690.284 336.935C686.151 326.418 710.231 353.272 716.973 360.899Z" fill="white"/>
<path d="M705.534 394.336C710.43 390.362 647.02 405.456 602.672 397.989C599.422 397.427 586.418 397.789 589.549 398.872C602.07 403.168 658.538 406.7 653.04 410.634C647.541 414.568 610.338 413.042 597.856 409.711C585.375 406.339 620.17 417.859 631.328 419.304C640.518 420.509 596.853 424.964 610.097 426.49C610.217 426.49 610.378 426.53 610.498 426.57C622.94 429.861 683.621 433.354 704.812 406.7C674.872 413.243 660.143 408.025 663.274 405.134C689.16 402.806 699.635 399.153 705.534 394.336Z" fill="white"/>
<path d="M581.522 136.991C586.86 121.577 597.977 104.437 646.177 111.783C681.374 117.162 684.023 134.984 681.173 162.642C683.22 162.842 685.347 164.769 687.434 169.666C692.571 181.668 683.381 196.601 675.996 203.144C667.488 236.22 619.849 250.109 608.692 249.387C573.857 238.227 576.626 155.496 581.522 136.991Z" fill="#FFBEA8"/>
<path d="M675.996 203.144C683.381 196.601 692.571 181.628 687.434 169.666C685.347 164.769 683.18 162.802 681.173 162.642C684.023 135.024 681.374 117.162 646.177 111.783C597.977 104.437 586.86 121.577 581.522 136.991C579.034 144.177 577.95 165.371 579.435 186.325C579.516 186.285 579.596 186.285 579.596 186.285C579.596 186.285 576.546 153.449 589.91 141.407C622.579 190.821 668.291 125.792 661.107 226.747C668.05 220.324 673.588 212.497 675.996 203.144Z" fill="#F5A489"/>
<path d="M680.009 175.447C674.07 169.064 668.451 177.694 668.09 189.295C668.09 189.295 672.745 189.295 670.658 202.462C676.357 203.104 685.909 181.829 680.009 175.447Z" fill="#DE906E"/>
<path d="M626.792 176.651C626.833 182.993 634.297 182.993 634.338 176.651C634.297 170.308 626.792 170.308 626.792 176.651Z" fill="#074D5A"/>
<path d="M589.549 176.932C589.589 182.471 596.572 182.471 596.612 176.932C596.572 171.352 589.589 171.352 589.549 176.932Z" fill="#074D5A"/>
<path d="M599.02 159.35C602.793 170.469 603.957 187.93 593.763 195.758C592.358 196.4 591.114 195.357 591.315 193.871C596.933 183.395 602.632 171.713 598.338 159.511C598.218 159.109 598.86 158.949 599.02 159.35Z" fill="#DC9087"/>
<path d="M670.738 171.352C665.963 181.106 659.702 190.259 651.595 197.765C650.832 204.509 674.551 171.352 670.738 171.352Z" fill="white"/>
<path d="M677.802 201.257C673.588 212.136 663.795 221.529 651.595 228.955C657.856 230.841 681.615 206.195 677.802 201.257Z" fill="white"/>
<path d="M653.04 197.283C653.04 197.283 648.946 214.183 655.367 226.787C651.996 236.381 609.334 268.614 590.231 234.615C579.676 212.497 578.352 195.437 578.352 195.437C613.348 163.203 611.1 192.105 653.04 197.283Z" fill="#4FECED"/>
<path d="M582.967 206.957C593.04 189.616 625.789 198.287 636.585 207.439C624.746 203.786 594.646 195.236 582.967 206.957Z" fill="#3EC9C9"/>
<path d="M586.539 221.93C597.575 204.709 624.264 214.022 636.585 223.335C623.18 219.522 599.462 210.369 586.539 221.93Z" fill="#3EC9C9"/>
<path d="M590.151 229.155C600.104 246.938 626.833 240.556 639.715 231.885C626.07 234.976 602.311 241.358 590.151 229.155Z" fill="#3EC9C9"/>
<path d="M603.274 184.799C596.773 184.719 584.974 192.426 578.512 197.002C578.392 195.999 578.352 195.477 578.352 195.477C613.348 163.203 611.1 192.105 653.04 197.324C653.04 197.324 652.518 199.411 652.157 202.662C632.893 200.174 611.783 184.92 603.274 184.799Z" fill="white"/>
<path d="M642.725 161.277C638.15 153.65 612.986 154.252 618.846 159.791C624.585 158.828 630.645 157.263 636.344 159.912C637.669 159.992 643.689 164.568 642.725 161.277Z" fill="#074D5A"/>
<path d="M597.575 158.748C592.84 155.015 584.171 156.058 581.683 161.959C581.522 162.441 582.164 162.722 582.485 162.401C585.937 158.828 591.876 157.503 595.93 160.835C597.174 161.799 598.779 159.711 597.575 158.748Z" fill="#074D5A"/>
<path d="M728.169 234.253C722.109 221.488 711.715 210.771 709.467 196.32C708.183 159.671 696.665 94.0001 651.113 90.8289C646.337 82.4394 631.167 83.7239 623.02 86.8148C613.147 88.1395 603.395 92.5951 594.003 95.4853C575.101 100.262 566.071 121.537 566.592 139.761C563.703 150.519 558.847 170.87 578.392 180.103C579.435 184.799 576.064 149.636 589.187 138.798C592.077 158.989 615.073 166.415 631.649 156.54C636.063 158.748 640.839 159.952 645.053 158.627C647.622 157.704 661.588 171.151 662.752 184.799C660.785 191.864 660.264 200.575 665.963 204.067C666.364 204.228 666.685 203.626 666.364 203.345C662.07 198.728 662.11 191.945 663.635 185.803C665.963 184.197 672.304 173.761 674.11 169.144C688.758 178.417 682.217 192.065 673.548 204.95C664.157 205.753 661.869 232.166 661.347 240.796C661.829 249.387 662.471 255.97 656.13 259.863C652.076 261.389 647.622 260.827 644.652 256.652C641.562 255.809 648.063 262.312 651.876 261.75C632.973 269.618 683.461 308.635 708.062 269.537C709.989 267.651 712.196 268.574 714.684 268.454C725.44 266.406 729.092 259.342 728.731 251.273C730.738 245.814 730.617 239.351 728.169 234.253ZM649.949 90.4275C642.645 87.2965 634.859 86.0521 627.073 86.4535C635.782 84.8078 645.053 84.3662 649.949 90.4275ZM567.796 134.342C569.161 119.49 576.064 105.761 587.502 99.1382C576.706 106.564 570.285 119.169 567.796 134.342ZM589.509 138.517C589.589 138.436 589.669 138.396 589.749 138.316C594.084 150.398 609.094 160.594 622.217 158.708C606.605 163.484 592.398 152.566 589.509 138.517ZM709.989 202.421C713.44 218.799 732.022 230.36 728.49 248.182C727.447 241.439 724.036 234.334 719.982 229.075C715.166 221.007 711.393 211.855 709.989 202.421Z" fill="#074D5A"/>
<path d="M725.882 268.574C753.694 271.504 748.035 329.629 761.319 340.788C768.543 346.047 768.543 348.013 769.186 359.815C769.828 371.616 782.951 393.935 779.018 406.419C775.085 418.903 774.443 428.095 758.671 423.479C742.898 418.863 726.524 416.253 725.842 399.836C725.199 383.418 723.875 364.391 714.042 349.298C704.21 334.205 713.4 319.112 710.109 312.529C706.859 305.986 701.601 277.084 725.882 268.574Z" fill="#D4D5D6"/>
<path d="M767.942 372.941C772.276 381.652 777.975 395.741 779.821 400.317C779.42 387.593 769.828 369.89 769.266 359.815C768.624 348.013 768.624 346.047 761.4 340.788C740.37 325.013 753.534 320.436 749.601 302.052C746.912 289.488 743.3 280.014 736.878 274.194C705.614 284.992 726.123 339.383 728.611 327.662C731.219 315.178 740.41 296.151 740.41 306.668C740.41 317.185 730.577 334.245 737.119 335.57C743.661 336.894 750.243 332.961 749.56 338.861C748.918 344.762 746.952 346.087 753.494 349.378C760.075 352.67 769.908 349.378 765.975 358.571C765.975 358.571 735.795 350.703 744.303 355.279C752.851 359.815 762.684 362.424 767.942 372.941Z" fill="white"/>
<path d="M771.834 381.652C764.691 371.938 697.066 319.112 697.066 319.112C697.066 319.112 692.17 306.588 688.598 300.205C685.026 293.863 678.765 291.736 676.758 281.299C673.708 269.096 682.698 261.549 675.755 260.787C657.494 267.611 666.966 283.145 663.555 290.09L647.22 289.126C647.22 289.126 635.02 294.024 637.669 300.968C631.649 302.172 629.401 310.441 635.14 314.174C632.17 322.002 632.973 322.564 640.036 326.618C640.036 326.618 638.23 330.592 640.558 332.84C642.886 335.088 651.675 338.982 657.775 338.982C663.876 338.982 674.069 338.741 681.293 338.5C689.521 347.652 705.775 366.639 716.33 384.582C732.464 412.079 739.326 423.68 769.788 422.034C788.931 404.853 778.135 390.242 771.834 381.652Z" fill="#FFBEA8"/>
<path d="M648.585 299.202C647.381 299.362 639.475 297.877 640.598 299.603C645.695 300.647 650.953 301.129 656.13 301.65C660.304 298.961 649.99 299.523 648.585 299.202Z" fill="#E69572"/>
<path d="M652.357 313.331C650.752 313.412 634.699 311.284 636.986 313.612C638.672 313.653 656.892 317.386 652.357 313.331Z" fill="#E69572"/>
<path d="M643.247 326.418C644.853 325.976 656.291 327.622 654.565 325.294C653.521 325.173 639.595 324.29 643.247 326.418Z" fill="#E69572"/>
<path d="M769.787 422.034C770.349 421.512 770.871 421.03 771.393 420.508C759.513 416.936 737.199 408.426 729.494 391.727C719.34 369.73 685.347 336.051 682.778 334.084C680.411 332.278 659.341 340.507 639.715 331.636C648.224 341.751 667.969 338.54 681.253 338.46C689.481 347.612 705.735 366.599 716.29 384.542C732.464 412.079 739.326 423.68 769.787 422.034Z" fill="#F5A489"/>
<path d="M673.708 292.097C673.708 292.097 666.163 280.456 664.719 271.304C662.752 278.088 665.601 285.714 663.555 290.09C669.936 290.812 673.708 292.097 673.708 292.097Z" fill="#E69572"/>
<path d="M339.438 257.013C324.267 278.047 313.431 294.505 313.431 294.505C313.431 294.505 267.96 282.704 269.646 265.885C271.331 249.025 300.789 213.661 300.789 213.661L339.438 257.013Z" fill="#AD614A"/>
<path d="M407.785 129.485C419.745 165.09 398.634 178.256 399.638 195.638C400.601 213.019 408.989 221.007 402.567 225.222C396.146 229.436 370.421 268.895 360.147 271.143C349.872 273.431 307.331 240.114 298.542 218.277C290.876 183.916 283.612 115.516 306.127 100.704C328.562 85.9317 396.026 94.4416 407.785 129.485Z" fill="#D9795D"/>
<path d="M330.769 226.827C337.15 216.832 342.247 204.107 342.127 192.627C342.006 181.147 368.294 154.091 368.294 154.091L370.019 142.491C370.019 142.491 393.337 142.33 410.193 138.436C409.631 135.626 408.828 132.616 407.745 129.445C395.986 94.4015 328.562 85.8915 306.047 100.704C283.532 115.516 290.836 183.916 298.462 218.277C307.251 240.074 349.792 273.391 360.066 271.143C361.27 270.862 362.715 270.099 364.28 268.895C355.411 261.469 325.311 235.337 330.769 226.827Z" fill="#AD614A"/>
<path d="M316.241 171.352C323.184 164.649 329.766 173.72 330.167 185.883C330.167 185.883 324.709 185.883 327.157 199.692C320.495 200.414 309.298 178.096 316.241 171.352Z" fill="#874B37"/>
<path d="M410.273 138.798C410.273 138.798 415.169 109.053 365.845 93.9198C315.679 76.0971 289.03 109.856 289.03 109.856L286.743 129.204L283.572 160.514L287.345 191.061L298.502 218.357C298.502 218.357 314.595 208.282 314.073 196.761C304.522 175.447 308.375 158.748 329.725 167.218C330.528 167.98 331.17 168.863 331.572 169.867C334.341 176.651 340.281 192.266 340.281 192.266C340.281 192.266 350.394 161.156 365.324 154.091L367.371 140.363C379.972 138.597 410.273 138.798 410.273 138.798Z" fill="#446D75"/>
<path opacity="0.76" d="M414.608 180.384C416.735 188.452 404.735 208.724 404.735 208.724C404.735 208.724 386.956 216.069 373.591 209.567C360.227 203.064 347.986 185.642 347.986 185.642C347.986 185.642 345.779 182.833 334.1 176.45C331.732 165.01 323.304 165.331 323.304 165.331L359.344 168.663C359.384 168.703 412.48 172.356 414.608 180.384Z" fill="#D3EDEE"/>
<path d="M411.036 184.96C410.634 196.882 401.283 207.76 401.283 207.76L411.036 184.96Z" fill="white"/>
<path d="M392.093 205.793C374.755 203.345 363.237 189.456 363.237 189.456C363.237 189.456 369.578 206.797 392.093 205.793Z" fill="white"/>
<path d="M390.046 194.473C386.956 202.502 391.812 204.549 394.782 196.481C398.273 194.273 393.016 186.405 390.046 194.473Z" fill="#074D5A"/>
<path d="M388.601 174.804C393.016 172.356 398.113 171.553 402.367 172.516C407.785 173.761 402.367 186.726 398.073 181.227C395.464 177.895 392.574 177.132 388.641 177.975C387.196 178.297 387.357 175.487 388.601 174.804Z" fill="#074D5A"/>
<path d="M427.972 111.06C426.005 108.491 423.116 106.685 419.865 106.404C419.102 106.323 419.102 107.528 419.865 107.608C434.955 110.94 429.096 127.277 419.464 133.66C418.42 134.302 417.337 134.824 416.173 135.145C431.985 123.424 427.611 106.966 407.504 106.484C407.343 106.243 407.143 106.002 406.982 105.802C403.29 94.8832 394.34 88.3803 381.377 88.3402C380.855 88.1395 377.404 88.4205 374.233 88.9022C373.792 88.5409 351.678 71.3203 335.786 84.4465C335.786 84.4465 330.488 83.3225 323.585 83.7239C319.491 81.195 314.154 80.8338 309.779 82.9613C303.238 86.3331 294.769 93.5184 294.97 101.306C278.074 106.484 276.308 149.074 276.308 149.074L287.024 185.843C287.024 185.843 295.733 145.582 305.967 142.531C334.662 133.9 365.364 154.011 365.364 154.011L367.411 140.283L410.313 138.758C411.557 138.115 412.721 137.433 413.845 136.75C424.44 135.907 435.156 119.851 427.972 111.06ZM296.174 100.102C296.335 100.664 296.575 100.904 296.575 100.904C296.415 100.945 296.254 100.945 296.094 100.985C296.094 100.704 296.134 100.423 296.174 100.102ZM305.806 88.9022C301.472 91.5916 298.983 93.7994 297.619 95.6057C298.662 93.5987 300.147 91.7522 301.753 90.3472C306.569 84.8479 314.876 80.9542 321.458 83.9648C316.482 84.4063 310.863 85.7711 305.806 88.9022ZM379.13 89.5846C386.233 89.2634 393.457 91.0698 399.076 95.405C401.604 97.4522 403.33 100.102 404.534 102.992C396.106 94.0402 385.31 90.7486 379.13 89.5846Z" fill="#074D5A"/>
<path d="M333.699 244.048C330.97 241.8 328.762 239.231 326.916 236.541C315.719 220.124 311.425 199.009 309.739 183.796C308.896 197.203 317.685 235.578 335.143 247.058C338.153 247.259 334.622 244.73 333.699 244.048Z" fill="white"/>
<path d="M363.638 204.99C352.601 198.046 343.17 188.733 336.709 177.815C336.026 176.771 333.378 173.159 333.378 173.159C333.378 173.159 340.963 190.058 362.996 205.954C363.558 206.275 364.24 205.352 363.638 204.99Z" fill="white"/>
<path d="M402.287 209.647C401.323 209.486 377.283 207.559 360.909 203.465C360.548 205.753 360.066 208.041 359.384 210.249C356.775 218.759 352.2 225.462 345.257 231.403C339.036 236.742 336.428 236.1 328.923 239.632C335.304 250.189 347.304 269.457 358.341 271.304C375.156 274.073 388.16 241.158 391.25 239.11C394.38 237.063 406.3 224.459 406.3 224.459C406.38 221.85 403.651 209.848 402.287 209.647Z" fill="#4FECED"/>
<path d="M402.287 209.647C401.323 209.486 377.283 207.56 360.909 203.465C360.628 205.392 360.227 207.319 359.705 209.245C373.029 213.099 389.885 216.471 404.374 214.504C403.651 211.855 402.848 209.727 402.287 209.647Z" fill="white"/>
<path d="M399.156 227.51C395.464 229.316 373.591 230.36 363.999 224.941C354.407 219.562 379.892 241.961 399.156 227.51Z" fill="#3EC9C9"/>
<path d="M381.899 243.687C360.909 239.351 354.127 227.59 353.364 229.597C352.601 231.604 363.598 247.058 381.899 243.687Z" fill="#3EC9C9"/>
<path d="M365.243 262.272C350.234 254.244 347.705 237.625 347.705 237.625C347.705 237.625 344.495 258.82 365.243 262.272Z" fill="#3EC9C9"/>
<path d="M314.635 365.354C314.635 365.354 338.274 354.837 369.859 349.9C401.444 345.003 428.333 326.016 428.333 326.016C428.333 326.016 452.895 341.47 438.848 348.495C424.801 355.52 377.805 411.677 313.913 420.789C313.913 420.789 301.993 406.499 299.184 399.515C296.415 392.49 314.635 365.354 314.635 365.354Z" fill="#AD614A"/>
<path d="M455.985 297.074C462.085 296.553 487.048 291.856 493.148 290.732C499.249 289.648 499.289 295.228 496.68 297.837C494.071 300.486 487.409 302.614 488.453 305.464C489.496 308.314 490.459 313.452 488.092 315.7C494.954 330.954 486.245 332.358 474.848 335.77C463.45 339.182 451.771 339.343 450.687 341.109C449.604 342.875 448.279 350.823 440.734 350.864C438.447 352.068 425.644 346.809 418.139 332.92C417.136 331.074 417.296 328.826 418.5 327.14C419.183 326.177 420.106 325.494 421.189 325.093L425.484 323.608C425.443 323.608 439.731 298.479 455.985 297.074Z" fill="#3EC9C9"/>
<path d="M496.921 304.701C487.57 303.938 481.991 301.369 477.175 304.942C472.359 308.515 475.971 313.653 479.222 313.251C482.473 312.85 492.346 315.539 496.399 313.733C500.453 311.927 506.272 305.464 496.921 304.701Z" fill="#4FECED"/>
<path d="M494.433 313.934C494.714 318.831 494.392 321.52 484.64 322.403C474.888 323.287 471.436 322.082 470.794 319.553C470.152 316.984 471.155 311.927 477.256 313.492C483.396 315.017 494.433 313.934 494.433 313.934Z" fill="#4FECED"/>
<path d="M487.49 324.41C491.503 325.213 491.302 330.953 487.249 331.515C485.724 331.716 483.677 331.636 480.948 331.275C471.236 329.95 468.185 327.983 468.105 325.334C468.025 322.684 470.192 317.988 475.771 320.878C478.941 322.524 483.837 323.688 487.49 324.41Z" fill="#4FECED"/>
<path d="M439.933 345.605C432.307 340.306 420.026 324.852 418.822 327.22C414.528 334.727 435.518 349.459 439.933 345.605Z" fill="#4FECED"/>
<path d="M455.463 276.08C462.968 273.15 465.095 263.677 468.547 267.852C472.038 272.026 468.868 281.7 462.647 284.069C456.426 286.437 454.661 288.002 454.661 288.002C454.661 288.002 463.089 332.639 434.353 331.676C434.353 331.676 425.443 328.866 425.443 323.608C425.443 318.349 435.196 290.13 435.196 290.13C435.196 290.13 444.266 278.449 445.59 278.609C446.955 278.81 455.463 276.08 455.463 276.08Z" fill="#4FECED"/>
<path d="M512.512 316.601L511.847 317.456L525.521 328.054L526.185 327.198L512.512 316.601Z" fill="white"/>
<path d="M513.662 314.668L510.513 318.727L513.367 320.942L516.516 316.882L513.662 314.668Z" fill="#889EA9"/>
<path d="M513.461 316.282L511.885 318.311L513.313 319.417L514.888 317.388L513.461 316.282Z" fill="white"/>
<path d="M467.889 278.93L464.716 283.021L487.832 300.96L491.005 296.868L467.889 278.93Z" fill="#96C2CA"/>
<path d="M467.259 279.891L466.004 281.508L489.131 299.432L490.386 297.816L467.259 279.891Z" fill="#E6E7E8"/>
<path d="M467.077 280.853L466.683 281.36L489.807 299.284L490.201 298.777L467.077 280.853Z" fill="#FAF6ED"/>
<path d="M465.561 282.412L465.167 282.919L488.294 300.844L488.688 300.336L465.561 282.412Z" fill="#E6E7E8"/>
<path d="M485.715 290.206L479.884 297.723L509.374 320.607L515.204 313.09L485.715 290.206Z" fill="#96C2CA"/>
<path d="M490.575 296.384L487.352 300.539L509.326 317.591L512.549 313.437L490.575 296.384Z" fill="#4FECED"/>
<path d="M488.834 296.395L487.996 297.473L509.981 314.512L510.818 313.434L488.834 296.395Z" fill="white"/>
<path d="M485.84 287.447L477.279 298.484L478.547 299.469L487.109 288.432L485.84 287.447Z" fill="white"/>
<path d="M468.75 275.934L461.837 284.846L463.771 286.347L470.684 277.435L468.75 275.934Z" fill="white"/>
<path d="M492.867 288.484C498.005 289.648 497.964 289.809 499.69 292.9C501.376 295.99 498.887 302.212 494.433 300.807C489.978 299.362 485.844 292.659 492.867 288.484Z" fill="#4FECED"/>
<path d="M497.563 296.191C498.165 297.275 498.286 298.72 498.005 300.125C497.041 300.888 495.837 301.209 494.433 300.767C490.941 299.683 487.69 295.308 489.777 291.495C489.857 291.455 489.938 291.374 490.018 291.334C495.717 292.619 495.677 292.819 497.563 296.191Z" fill="#3EC9C9"/>
<path d="M339.959 320.155C328.441 282.463 327.277 252.477 278.596 229.517C215.386 262.513 189.379 381.25 160.965 502.798C161.647 503.52 162.289 504.203 162.972 504.925C165.46 507.534 167.988 510.104 170.637 512.552C171.961 513.797 173.326 515.041 174.731 516.205C175.373 516.767 176.015 517.289 176.697 517.851C176.898 518.011 177.139 518.212 177.379 518.373C177.139 518.172 177.018 518.092 177.7 518.613C177.7 518.613 177.741 518.613 177.741 518.654C180.55 520.741 183.52 522.547 186.73 524.033C187.052 524.193 187.332 524.314 187.654 524.434C187.453 524.354 187.453 524.313 188.175 524.675C188.938 524.996 189.74 525.277 190.503 525.558C192.068 526.12 193.674 526.642 195.279 527.123C202.021 529.13 208.964 530.455 215.827 531.98C221.526 533.265 227.064 534.79 232.482 536.838C241.111 533.385 248.696 528.93 263.425 530.054C281.044 531.378 300.388 541.735 311.385 538.644C316.04 537.319 318.889 532.703 318.047 527.926C317.164 522.748 317.244 501.112 321.619 495.171C329.886 483.931 318.408 478.633 316.762 461.452C315.077 444.272 322.461 444.834 325.672 422.074C327.197 411.236 327.839 403.047 329.204 392.691C336.709 366.92 345.939 339.744 339.959 320.155Z" fill="#3EC9C9"/>
<path d="M303.719 263.637C322.18 274.716 331.812 310.2 331.812 310.2C331.812 310.2 328.12 289.488 319.973 273.993C313.592 261.83 295.853 241.439 272.776 232.889C216.148 268.414 190.583 375.831 164.296 488.508C170.878 501.634 178.262 512.833 186.209 518.694C214.302 539.407 238.703 530.535 238.703 523.872C238.703 517.209 228.349 517.971 235.733 502.437C243.118 486.902 254.957 492.08 238.703 483.209C222.449 474.338 223.934 478.031 235.011 452.902C246.088 427.774 260.134 416.695 238.703 410.032C217.272 403.368 267.519 410.754 265.312 406.339C249.058 401.16 224.656 379.725 235.011 384.181C245.365 388.596 261.619 394.537 261.619 394.537C219.479 374.587 232.804 301.41 236.496 327.26C240.188 353.152 257.927 366.438 257.927 366.438C249.78 353.152 257.205 325.775 267.519 308.796C277.873 291.776 268.241 266.647 285.258 266.647C302.274 266.647 305.967 274.796 312.589 279.211C319.251 283.627 276.388 250.39 267.519 243.004C258.649 235.538 285.258 252.558 303.719 263.637Z" fill="#4FECED"/>
<path d="M185.246 441.783C199.172 433.434 187.734 423.318 202.021 346.368C187.734 388.596 176.135 437.769 164.416 488.026C180.55 519.497 201.178 522.066 215.787 518.654C232.523 514.72 190.182 506.812 186.209 500.911C182.276 495.011 187.212 491.037 197.045 491.037C206.918 491.037 197.045 478.231 187.172 472.291C177.339 466.43 170.436 450.654 185.246 441.783Z" fill="#3EC9C9"/>
<path d="M859.566 548.318H812.088C803.981 548.318 797.399 543.461 797.399 537.44C797.399 531.419 803.981 526.562 812.088 526.562H848.77C860.288 526.562 869.639 519.657 869.639 511.107C869.639 502.597 860.288 495.653 848.77 495.653H812.851C804.222 495.653 797.199 490.475 797.199 484.052C797.199 477.67 804.222 472.451 812.851 472.451H818.389C829.907 472.451 839.258 465.547 839.258 456.997C839.258 448.487 829.907 441.542 818.389 441.542H58.5445C47.0263 441.542 37.6752 448.447 37.6752 456.997C37.6752 465.507 47.0263 472.451 58.5445 472.451H78.0092C86.6379 472.451 93.6612 477.629 93.6612 484.052C93.6612 490.434 86.6379 495.653 78.0092 495.653H74.6782C63.1599 495.653 53.8088 502.557 53.8088 511.107C53.8088 519.617 63.1599 526.562 74.6782 526.562H97.4338C102.932 526.562 107.427 531.017 107.427 536.557C107.427 542.056 102.972 546.552 97.4338 546.552H39.9227C11.3076 546.552 10.2641 579.989 39.5615 579.989C68.8187 579.989 859.606 579.187 859.606 579.187C859.606 579.187 880.475 581.033 880.475 563.732C880.435 555.262 871.084 548.318 859.566 548.318Z" fill="#9CC9CD"/>
<path d="M646.337 521.664C646.337 518.493 648.786 515.964 651.755 515.964H700.959C707.701 515.964 713.159 510.224 713.159 503.119C713.159 496.014 707.701 490.274 700.959 490.274H545.001C541.79 490.274 539.181 487.504 539.181 484.132C539.181 480.72 541.79 477.991 545.001 477.991H717.414C723.273 477.991 728.009 472.973 728.009 466.831C728.009 460.65 723.273 455.672 717.414 455.672H329.605C324.629 455.672 320.575 459.927 320.575 465.186C320.575 470.444 316.522 474.699 311.545 474.699H129.059C123.48 474.699 118.985 479.436 118.985 485.296C118.985 491.157 123.48 495.894 129.059 495.894H201.74C205.834 495.894 209.165 499.386 209.165 503.721C209.165 508.056 205.834 511.549 201.74 511.549H154.503C147.761 511.549 142.303 517.289 142.303 524.394C142.303 531.499 147.761 537.239 154.503 537.239H241.833C246.007 537.239 249.379 540.812 249.379 545.187C249.379 549.562 252.75 553.135 256.924 553.135H741.213C747.955 553.135 753.413 547.395 753.413 540.29C753.413 533.185 747.955 527.445 741.213 527.445H651.755C648.786 527.364 646.337 524.795 646.337 521.664Z" fill="#ACDEE2"/>
<path d="M353.966 473.375C380.574 470.404 431.865 451.939 448.761 441.623H165.339C189.379 455.993 231.961 459.245 268.482 460.81C317.806 462.938 316.722 477.549 353.966 473.375Z" fill="#D1D3D4"/>
<path d="M576.104 463.259C591.435 466.029 638.471 487.344 648.786 487.063C659.1 486.782 654.204 481.523 664.076 481.563C675.033 474.9 693.855 466.029 693.855 466.029C693.855 466.029 779.58 441.623 730.979 441.623C682.377 441.623 506.794 441.623 506.794 441.623C540.265 454.909 564.546 461.171 576.104 463.259Z" fill="#D1D3D4"/>
<path d="M522.767 507.816H415.129V539.688H522.767V507.816Z" fill="#6D6E71"/>
<path d="M515.382 501.473C514.981 502.557 515.824 503.641 516.386 504.644C518.031 507.454 517.389 511.228 516.907 514.559C516.707 516.004 517.469 543.541 516.907 545.147H506.794C506.673 544.906 506.633 544.585 506.633 544.304C506.593 543.943 506.874 514.559 506.754 514.238C506.192 511.027 505.75 507.414 507.315 504.725C507.877 503.761 508.72 502.637 508.319 501.554C505.028 498.944 506.152 494.93 508.198 491.759C509.563 488.949 510.245 468.317 510.165 465.105C510.285 463.018 509.121 458.964 511.891 458.402C514.66 458.964 513.496 463.018 513.576 465.105C513.496 468.357 514.178 488.949 515.543 491.799C517.549 494.85 518.673 498.824 515.382 501.473Z" fill="white"/>
<path d="M498.245 501.473C497.844 502.557 498.687 503.641 499.249 504.644C500.894 507.454 500.252 511.228 499.77 514.559C499.57 516.004 500.332 543.541 499.77 545.147H489.657C489.536 544.906 489.496 544.585 489.496 544.304C489.456 543.943 489.737 514.559 489.617 514.238C489.055 511.027 488.613 507.414 490.178 504.725C490.74 503.761 491.583 502.637 491.182 501.554C487.891 498.944 489.015 494.93 491.061 491.759C492.426 488.949 493.108 468.317 493.028 465.105C493.148 463.018 491.984 458.964 494.754 458.402C497.523 458.964 496.359 463.018 496.439 465.105C496.359 468.357 497.041 488.949 498.406 491.799C500.412 494.85 501.536 498.824 498.245 501.473Z" fill="white"/>
<path d="M481.108 501.473C480.707 502.557 481.55 503.641 482.112 504.644C483.757 507.454 483.115 511.228 482.633 514.559C482.433 516.004 483.195 543.541 482.633 545.147H472.52C472.399 544.906 472.359 544.585 472.359 544.304C472.319 543.943 472.6 514.559 472.48 514.238C471.918 511.027 471.476 507.414 473.042 504.725C473.603 503.761 474.446 502.637 474.045 501.554C470.754 498.944 471.878 494.93 473.925 491.759C475.289 488.949 475.971 468.317 475.891 465.105C476.011 463.018 474.848 458.964 477.617 458.402C480.386 458.964 479.222 463.018 479.302 465.105C479.222 468.357 479.904 488.949 481.269 491.799C483.275 494.85 484.439 498.824 481.108 501.473Z" fill="white"/>
<path d="M463.971 501.473C463.57 502.557 464.413 503.641 464.975 504.644C466.62 507.454 465.978 511.228 465.496 514.559C465.296 516.004 466.058 543.541 465.496 545.147H455.383C455.263 544.906 455.222 544.585 455.222 544.304C455.182 543.943 455.463 514.559 455.343 514.238C454.781 511.027 454.339 507.414 455.905 504.725C456.467 503.761 457.309 502.637 456.908 501.554C453.617 498.944 454.741 494.93 456.788 491.759C458.152 488.949 458.834 468.317 458.754 465.105C458.875 463.018 457.711 458.964 460.48 458.402C463.249 458.964 462.085 463.018 462.165 465.105C462.085 468.357 462.767 488.949 464.132 491.799C466.139 494.85 467.302 498.824 463.971 501.473Z" fill="white"/>
<path d="M446.834 501.473C446.433 502.557 447.276 503.641 447.838 504.644C449.483 507.454 448.841 511.228 448.36 514.559C448.159 516.004 448.921 543.541 448.36 545.147H438.246C438.126 544.906 438.085 544.585 438.085 544.304C438.045 543.943 438.326 514.559 438.206 514.238C437.644 511.027 437.203 507.414 438.768 504.725C439.33 503.761 440.172 502.637 439.771 501.554C436.48 498.944 437.604 494.93 439.651 491.759C441.015 488.949 441.697 468.317 441.617 465.105C441.738 463.018 440.574 458.964 443.343 458.402C446.112 458.964 444.948 463.018 445.028 465.105C444.948 468.357 445.63 488.949 446.995 491.799C449.002 494.85 450.166 498.824 446.834 501.473Z" fill="white"/>
<path d="M429.698 501.473C429.296 502.557 430.139 503.641 430.701 504.644C432.346 507.454 431.704 511.228 431.223 514.559C431.022 516.004 431.785 543.541 431.223 545.147H421.109C420.989 544.906 420.949 544.585 420.949 544.304C420.908 543.943 421.189 514.559 421.069 514.238C420.507 511.027 420.066 507.414 421.631 504.725C422.193 503.761 423.035 502.637 422.634 501.554C419.343 498.944 420.467 494.93 422.514 491.759C423.878 488.949 424.56 468.317 424.48 465.105C424.601 463.018 423.437 458.964 426.206 458.402C428.975 458.964 427.811 463.018 427.892 465.105C427.811 468.357 428.494 488.949 429.858 491.799C431.865 494.85 433.029 498.824 429.698 501.473Z" fill="white"/>
<path d="M522.767 514.68H415.129V546.552H522.767V514.68Z" fill="#939598"/>
<path d="M269.325 527.565H295.292C295.773 527.565 296.175 527.164 296.175 526.682V474.98C296.175 474.298 295.653 473.776 294.971 473.776H269.687C269.004 473.776 268.483 474.298 268.483 474.98V526.682C268.483 527.204 268.844 527.565 269.325 527.565Z" fill="white"/>
<path d="M269.285 466.871H295.371C296.094 466.871 296.656 467.634 296.656 468.557V472.411C296.656 473.334 296.094 474.097 295.371 474.097H269.285C268.562 474.097 268 473.334 268 472.411V468.557C268 467.634 268.562 466.871 269.285 466.871Z" fill="#3EC9C9"/>
<path d="M272.395 510.111H296.194V488.114H272.395V510.111Z" fill="#4FECED"/>
<path d="M338.355 540.691H364.321C364.803 540.691 365.204 540.29 365.204 539.808V488.106C365.204 487.424 364.682 486.902 364 486.902H338.676C337.994 486.902 337.472 487.424 337.472 488.106V539.808C337.472 540.29 337.873 540.691 338.355 540.691Z" fill="white"/>
<path d="M338.274 479.998H364.401C365.123 479.998 365.685 480.76 365.685 481.684V485.537C365.685 486.46 365.123 487.223 364.401 487.223H338.274C337.551 487.223 336.99 486.46 336.99 485.537V481.684C336.99 480.72 337.551 479.998 338.274 479.998Z" fill="#3EC9C9"/>
<path d="M341.381 523.235H365.18V501.237H341.381V523.235Z" fill="#4FECED"/>
<path d="M133.514 493.164H250.181V477.75C250.181 473.896 247.051 470.725 243.158 470.725H140.497C136.644 470.725 133.474 473.856 133.474 477.75V493.164H133.514Z" fill="#939598"/>
<path d="M250.181 480.961H133.514V482.968H250.181V480.961Z" fill="#6D6E71"/>
<path d="M619.769 441.342C629.963 440.981 651.153 444.633 658.457 447.885C665.762 451.176 685.106 457.599 684.945 461.613C684.745 465.627 660.103 461.292 650.752 459.365C642.244 457.599 609.695 454.227 609.695 454.227L619.769 441.342Z" fill="#E69572"/>
<path d="M603.395 440.097C603.395 440.097 539.382 412.641 526.419 404.01C526.419 404.01 565.71 341.27 576.746 322.644C587.783 304.019 565.549 276.923 565.549 276.923C531.957 281.299 516.787 337.135 501.617 357.126C486.446 377.116 469.51 411.115 475.048 423.559C479.945 434.558 567.917 456.917 598.82 459.164C616.478 474.458 608.853 465.908 630.685 476.265C637.307 479.034 649.468 489.672 652.679 484.855L638.833 470.966C637.869 470.003 638.833 468.397 640.117 468.798C645.495 470.364 653.722 472.933 654.966 474.619C666.123 484.453 669.655 479.476 669.334 477.549C674.551 477.629 674.551 473.575 674.551 473.575L656.612 457.84C655.207 456.595 656.411 454.267 658.257 454.789C665.642 456.796 676.879 460.449 682.538 465.467C689.521 469.641 690.203 464.784 690.203 464.784C675.073 451.337 645.214 434.598 603.395 440.097Z" fill="#FFBEA8"/>
<path d="M668.33 475.943L652.397 463.058L640.839 458.723C637.428 452.902 654.123 462.456 653.642 462.135C655.247 463.219 668.33 475.943 668.33 475.943Z" fill="#E69572"/>
<path d="M526.579 403.77C529.309 399.394 566.111 340.587 576.746 322.684C587.783 304.059 565.549 276.964 565.549 276.964C551.542 278.77 538.017 293.462 529.108 306.829C566.552 287.561 562.82 326.859 544.8 349.98C541.991 358.37 535.449 371.376 530.513 383.217C527.583 390.202 520.078 394.176 512.693 392.53C508.6 391.647 503.503 391.888 497.242 394.577C497.242 394.577 513.777 393.212 526.579 403.77Z" fill="#F5A489"/>
<path d="M630.645 476.265C636.906 478.874 648.143 488.548 652.036 485.497C643.087 485.818 630.966 472.21 619.729 468.919C610.418 466.43 597.977 454.629 597.977 454.629C576.505 455.592 509.764 433.394 488.653 425.406C480.667 423.318 476.092 419.184 475.129 408.707C473.644 414.849 473.443 420.067 474.968 423.559C479.864 434.558 567.837 456.917 598.739 459.164C616.438 474.458 608.813 465.908 630.645 476.265Z" fill="#F5A489"/>
<path d="M669.374 477.509C674.591 477.589 674.591 473.535 674.591 473.535L673.909 472.933C670.778 476.706 668.33 475.984 668.33 475.984C661.668 484.895 652.277 463.138 632.331 466.35C632.331 466.35 637.588 470.805 643.287 475.502L638.832 471.006C637.869 470.043 638.832 468.437 640.117 468.838C645.495 470.404 653.722 472.973 654.966 474.659C666.123 484.413 669.695 479.476 669.374 477.509Z" fill="#F5A489"/>
<path d="M529.068 306.829C523.369 286.838 538.298 286.838 538.298 286.838C540.827 273.833 548.934 274.595 558.927 274.435C601.508 237.746 625.388 351.265 554.673 358.611C573.214 347.572 577.749 271.344 529.068 306.829Z" fill="white"/>
<path d="M538.34 286.798C538.34 286.798 530.995 286.798 528.547 293.743C536.413 286.276 547.129 281.981 558.246 282.503C554.714 279.733 547.209 280.215 539.584 282.784C538.661 284.992 538.34 286.798 538.34 286.798Z" fill="#D4D5D6"/>
<path d="M594.485 310.843C593.241 323.287 586.739 333.763 578.632 343.197C588.345 324.932 594.004 299.362 586.78 281.219C589.669 296.512 586.86 313.051 580.599 327.26C585.014 310.923 586.178 273.592 561.455 274.555C588.987 282.383 581.522 328.746 567.154 350.061C571.408 338.861 582.766 295.388 557.643 289.969C573.375 297.275 569.602 331.154 568.077 331.074C565.87 349.499 554.753 358.53 554.753 358.53C554.753 358.53 570.726 360.176 584.01 346.448C594.726 330.03 602.271 310.883 594.485 310.843Z" fill="#D4D5D6"/>
<path d="M566.031 310.963C566.111 311.204 566.191 311.485 566.271 311.726C560.291 285.032 535.77 297.516 527.783 299.563C527.864 301.65 528.265 304.059 529.028 306.829C529.068 306.829 556.72 283.105 566.031 310.963Z" fill="#D4D5D6"/>
<path d="M524.212 371.737C525.536 369.088 527.743 357.206 525.977 352.83C524.212 348.415 525.536 343.156 525.536 338.299C525.737 332.88 521.964 331.596 514.539 334.245C503.182 358.611 486.727 374.426 478.058 399.354C492.627 400.879 505.349 386.067 514.499 376.112C522.004 375.711 523.77 372.62 524.212 371.737Z" fill="#F5A489"/>
<path d="M307.853 299.122C327.518 318.068 361.19 411.437 361.19 411.437C361.19 411.437 375.237 399.515 406.822 394.577C438.407 389.68 458.754 374.226 458.754 374.226C458.754 374.226 483.316 389.68 469.269 396.705C455.222 403.729 408.226 459.887 344.334 468.999C344.334 468.999 329.605 464.102 326.796 457.077C323.986 450.052 281.164 380.568 267.117 354.597C253.111 328.585 268.562 292.097 307.853 299.122Z" fill="#D9795D"/>
<path d="M458.754 374.226C458.754 374.226 452.293 379.123 440.975 384.301C459.677 388.275 453.617 402.766 453.617 402.766C453.617 402.766 440.975 414.006 428.333 421.954C384.829 458.924 343.331 462.175 343.17 462.215C329.324 464.664 386.273 412.199 367.29 407.382C363.197 409.751 361.19 411.437 361.19 411.437C361.19 411.437 327.518 318.068 307.853 299.122C268.562 292.097 253.111 328.625 267.158 354.597C281.204 380.568 324.027 450.052 326.836 457.077C329.645 464.102 344.374 468.999 344.374 468.999C408.226 459.887 455.263 403.729 469.309 396.705C483.316 389.68 458.754 374.226 458.754 374.226Z" fill="#AD614A"/>
<path d="M448.52 375.229C450.968 371.416 476.894 341.631 482.593 340.106C488.252 338.58 500.453 330.954 506.111 333.242C511.77 335.53 522.325 330.953 523.971 334.004C525.576 337.055 521.523 340.106 521.523 340.106C521.523 340.106 527.181 344.682 520.72 349.258C520.72 349.258 527.222 356.885 519.115 359.935C532.479 365.756 516.345 374.627 511.81 373.664C511.81 373.664 500.453 392.771 485.844 396.584C471.236 400.398 472.881 398.11 472.881 398.11C472.881 398.11 470.032 406.018 461.604 402.284C460.199 392.008 458.754 383.86 443.343 383.097C443.343 383.137 441.216 372.941 448.52 375.229Z" fill="#4FECED"/>
<path d="M523.931 334.004C521.603 330.713 505.63 336.092 502.259 335.369C498.968 335.369 490.58 337.697 493.831 338.179C497.081 338.661 500.533 334.767 515.182 334.125C520.8 332.72 517.67 340.066 516.265 340.507C514.861 340.989 502.219 344.722 504.105 344.722C513.055 346.207 507.757 350.623 510.647 354.075C512.533 355.961 512.974 359.213 512.051 361.1C511.128 362.986 512.533 363.428 512.533 366.238C507.637 374.587 495.757 390.041 477.456 391.968C477.456 391.968 478.379 378.4 474.647 371.857C471.557 366.438 474.527 385.706 473.523 395.701C472.279 383.458 458.634 370.131 451.249 375.631C451.249 375.631 462.928 376.112 466.219 387.312C469.51 398.551 464.333 398.551 464.333 398.551C464.012 389.239 457.791 378.079 443.022 380.769C443.062 382.093 443.303 383.097 443.303 383.097C458.714 383.86 460.159 392.008 461.563 402.284C469.389 405.777 472.399 399.194 472.801 398.23C472.721 398.632 473.363 399.836 485.804 396.584C500.413 392.771 511.77 373.664 511.77 373.664C516.386 374.587 532.399 365.716 519.075 359.935C527.181 356.885 520.68 349.258 520.68 349.258C527.181 344.682 521.483 340.106 521.483 340.106C521.483 340.106 525.576 337.055 523.931 334.004Z" fill="#3EC9C9"/>
<path d="M291.679 273.271C303.438 272.508 321.819 302.975 321.819 302.975C321.819 302.975 347.545 348.696 351.959 370.814C356.374 392.931 371.745 412.962 371.745 412.962C337.351 447.845 329.525 432.952 293.886 444.754C293.886 444.754 281.405 402.084 269.646 392.169C257.887 382.254 243.198 338.821 255.679 311.405C268.161 283.948 279.92 274.033 291.679 273.271Z" fill="#4FECED"/>
<path d="M331.091 424.041C333.298 415.892 303.76 414.447 303.76 414.447C353.926 409.871 376.642 405.777 291.198 397.427C271.974 393.734 291.198 381.17 270.489 370.814C251.867 361.501 250.021 340.186 267.078 290.692C241.714 320.597 250.463 373.262 269.646 392.129C281.406 402.044 297.098 435.843 297.098 435.843C296.736 435.24 322.101 438.733 334.101 438.331C331.853 433.394 330.047 427.774 331.091 424.041Z" fill="#3EC9C9"/>
<path d="M351.959 370.814C350.113 361.581 344.575 348.254 338.715 335.851C340.762 346.408 338.635 350.422 333.297 347.13C323.705 341.23 279.358 315.339 301.512 333.844C323.665 352.309 341.404 361.18 342.889 367.843C344.374 374.507 323.665 375.992 335.505 383.378C347.344 390.764 356.936 387.071 357.658 396.665C358.3 404.934 361.11 410.995 370.381 411.115C366.608 405.777 355.571 388.998 351.959 370.814Z" fill="#3EC9C9"/>
</svg>
